<?xml version="1.0" encoding="utf-8"?>
<!-- Generator: Adobe Illustrator 25.1.0, SVG Export Plug-In . SVG Version: 6.00 Build 0)  -->
<svg version="1.1" id="Layer_1" xmlns="http://www.w3.org/2000/svg" xmlns:xlink="http://www.w3.org/1999/xlink" x="0px" y="0px"
	viewBox="0 0 34.64 42.57" style="enable-background:new 0 0 34.64 42.57;" xml:space="preserve">
<style type="text/css">
	.st0{fill:#FFFFFF;}
	.T{fill:#DEAA22;}
	.t{fill:#0F2C3E;}
</style>
<g>
	<polygon class="T" points="18.51,25.88 1,25.88 1,31.7 6.85,31.7 6.85,41.57 12.67,41.57 12.67,31.7 18.51,31.7 	"/>
	<polygon class="t" points="27.81,25.88 27.81,20.05 21.98,20.05 21.97,41.57 27.79,41.57 27.79,31.7 33.63,31.7 33.63,25.88 	"/>
	<polygon class="T" points="16.13,16.69 33.64,16.69 33.64,10.87 27.8,10.87 27.8,1 21.98,1 21.98,10.87 16.13,10.87 	"/>
	<polygon class="t" points="6.84,1 6.84,10.87 1,10.87 1,16.69 6.82,16.69 6.82,22.51 12.65,22.51 12.66,1 	"/>
</g>
</svg>
