<?xml version="1.0" encoding="utf-8"?>
<!-- Generator: Adobe Illustrator 25.1.0, SVG Export Plug-In . SVG Version: 6.00 Build 0)  -->
<svg version="1.1" id="Layer_1" xmlns="http://www.w3.org/2000/svg" xmlns:xlink="http://www.w3.org/1999/xlink" x="0px" y="0px"
	viewBox="0 0 295.2 42.57" style="enable-background:new 0 0 295.2 42.57;" xml:space="preserve">
<style type="text/css">
	.st0{		fill:#FFFFFF;}
	.T{			fill:#DEAA22;}
	.t{			fill:#0F2C3E;}
	.time{		fill:#0F2C3E;}
	.time_t{	fill:#0F2C3E;}
	.tagger{	fill:#0F2C3E;}
	.tagger_t{	fill:#0F2C3E;}
</style>
<g>
	<g>
		<polygon class="T" points="18.51,25.88 1,25.88 1,31.7 6.85,31.7 6.85,41.57 12.67,41.57 12.67,31.7 18.51,31.7 	"/>
		<polygon class="t" points="27.81,25.88 27.81,20.05 21.98,20.05 21.97,41.57 27.79,41.57 27.79,31.7 33.63,31.7 33.63,25.88 	"/>
		<polygon class="T" points="16.13,16.69 33.64,16.69 33.64,10.87 27.8,10.87 27.8,1 21.98,1 21.98,10.87 16.13,10.87 	"/>
		<polygon class="t" points="6.84,1 6.84,10.87 1,10.87 1,16.69 6.82,16.69 6.82,22.51 12.65,22.51 12.66,1 	"/>
	</g>
	<g>
		<!-- TIME -->
		<polygon class="time_t" points="73.29,8.81 53.58,8.81 53.58,15.18 60.6,15.18 60.6,33.6 66.97,33.6 66.97,15.18 73.29,15.18"/>
		<polygon class="time" points="89.31,15.18 93.67,15.18 93.67,8.84 78,8.84 78,15.18 82.93,15.18 82.92,15.78 82.9,27.23 78,27.25
			78,33.59 93.67,33.59 93.67,27.25 89.25,27.24 			"/>
		<path class="time" d="M123.11,16.63v16.96l6.42,0l-0.08-24.78h-6.95l-0.02,0.02c-3.03,0-5.92,1.17-8.13,3.28l-0.4,0.53l-0.47-0.53
			c-2.19-2.09-5.04-3.26-8.05-3.28l-7.04-0.02l-0.01,24.79h6.34l0-17.82l0.01-0.52l0.62,0.02c2.94,0,5.32,2.38,5.34,5.31l0.02,0.02
			v12.99h6.42V20.61l0.02-0.02c0.01-2.93,2.4-5.31,5.33-5.31l0.63,0v0.63V16.63z"/>
		<polygon class="time" points="152.08,15.2 152.08,8.82 140.53,8.82 136.06,8.82 134.15,8.82 134.15,33.6 136.06,33.6 140.53,33.6
			152.08,33.6 152.08,27.22 140.53,27.22 140.53,24.12 152.08,24.12 152.08,18.3 140.53,18.3 140.53,15.2"/>
		<!-- tagger -->
		<polygon class="tagger_t" points="165.36,17.08 165.36,33.6 161.97,33.6 161.97,11.2 161.97,8.81 165.36,8.81 165.36,13.68
			165.36,13.68 170.64,13.68 170.64,17.08 			"/>
		<path class="tagger" d="M196.09,30.92h-2.77v-1.6V18.66v-5.38h-3.17v3.18h-0.49c-0.65-1.28-1.54-2.22-2.67-2.83
			c-1.13-0.61-2.38-0.92-3.77-0.92c-1.28,0-2.48,0.23-3.62,0.69c-1.14,0.46-2.14,1.13-2.99,2.02c-0.86,0.88-1.53,1.96-2.01,3.24
			c-0.49,1.28-0.73,2.74-0.73,4.4v0.65c0,1.68,0.24,3.16,0.73,4.44c0.49,1.28,1.16,2.35,2.01,3.24c0.85,0.88,1.85,1.55,2.99,2
			c1.14,0.45,2.37,0.67,3.7,0.67c1.28,0,2.49-0.33,3.64-0.98c1.15-0.65,2.05-1.66,2.71-3.01h0.49v0.24v3.38h3.17v0h2.77V30.92z
			M189.66,26.66c-0.32,0.91-0.77,1.69-1.34,2.34c-0.57,0.65-1.26,1.15-2.05,1.51c-0.8,0.35-1.68,0.53-2.63,0.53
			c-1.93,0-3.49-0.64-4.7-1.93c-1.21-1.29-1.81-3.09-1.81-5.39v-0.65c0-1.09,0.16-2.08,0.49-2.99c0.33-0.91,0.78-1.68,1.36-2.32
			c0.58-0.64,1.27-1.13,2.06-1.49c0.79-0.35,1.66-0.53,2.6-0.53c0.92,0,1.78,0.18,2.58,0.55c0.8,0.37,1.49,0.87,2.08,1.53
			c0.58,0.65,1.04,1.43,1.36,2.34c0.33,0.91,0.49,1.91,0.49,2.99v0.49C190.15,24.74,189.99,25.75,189.66,26.66z"/>
		<path class="tagger" d="M215.76,30.39h-0.49c-0.65,1.22-1.54,2.14-2.67,2.75c-1.13,0.61-2.36,0.92-3.68,0.92
			c-1.36,0-2.63-0.23-3.83-0.69c-1.19-0.46-2.25-1.13-3.16-1.99c-0.91-0.87-1.63-1.95-2.16-3.24c-0.53-1.29-0.79-2.76-0.79-4.42
			v-0.65c0-1.63,0.27-3.09,0.81-4.38c0.54-1.29,1.26-2.37,2.16-3.26s1.94-1.55,3.13-2.02c1.19-0.46,2.44-0.69,3.75-0.69
			c1.46,0,2.75,0.32,3.85,0.96c1.1,0.64,1.96,1.57,2.58,2.79h0.49v-3.18h3.17v25.16c0,0.92-0.29,1.68-0.87,2.28
			c-0.58,0.6-1.34,0.9-2.26,0.9h-13.15v-2.93h12.01c0.73,0,1.1-0.41,1.1-1.22V30.39z M209,31.04c0.95,0,1.83-0.18,2.65-0.53
			c0.81-0.35,1.53-0.85,2.14-1.51c0.61-0.65,1.09-1.43,1.45-2.34c0.35-0.91,0.53-1.92,0.53-3.03v-0.49c0-1.08-0.18-2.08-0.53-2.99
			c-0.35-0.91-0.83-1.69-1.45-2.34c-0.61-0.65-1.33-1.16-2.16-1.53c-0.83-0.37-1.7-0.55-2.63-0.55c-0.95,0-1.84,0.18-2.67,0.53
			c-0.83,0.35-1.55,0.85-2.16,1.51c-0.61,0.65-1.09,1.42-1.42,2.32c-0.34,0.9-0.51,1.89-0.51,2.97v0.65c0,1.14,0.17,2.16,0.51,3.05
			c0.34,0.9,0.82,1.66,1.42,2.3c0.61,0.64,1.32,1.13,2.14,1.47C207.13,30.87,208.02,31.04,209,31.04z"/>
		<path class="tagger" d="M240.67,30.39h-0.49c-0.65,1.22-1.54,2.14-2.67,2.75c-1.13,0.61-2.36,0.92-3.68,0.92
			c-1.36,0-2.63-0.23-3.83-0.69c-1.19-0.46-2.25-1.13-3.16-1.99c-0.91-0.87-1.63-1.95-2.16-3.24c-0.53-1.29-0.79-2.76-0.79-4.42
			v-0.65c0-1.63,0.27-3.09,0.81-4.38c0.54-1.29,1.26-2.37,2.16-3.26c0.9-0.88,1.94-1.55,3.13-2.02c1.19-0.46,2.44-0.69,3.75-0.69
			c1.46,0,2.75,0.32,3.85,0.96c1.1,0.64,1.96,1.57,2.58,2.79h0.49v-3.18h3.17v25.16c0,0.92-0.29,1.68-0.87,2.28
			c-0.58,0.6-1.34,0.9-2.26,0.9h-13.15v-2.93h12.01c0.73,0,1.1-0.41,1.1-1.22V30.39z M233.91,31.04c0.95,0,1.83-0.18,2.65-0.53
			c0.81-0.35,1.53-0.85,2.14-1.51c0.61-0.65,1.09-1.43,1.45-2.34c0.35-0.91,0.53-1.92,0.53-3.03v-0.49c0-1.08-0.18-2.08-0.53-2.99
			c-0.35-0.91-0.83-1.69-1.45-2.34c-0.61-0.65-1.33-1.16-2.16-1.53c-0.83-0.37-1.7-0.55-2.63-0.55c-0.95,0-1.84,0.18-2.67,0.53
			c-0.83,0.35-1.55,0.85-2.16,1.51c-0.61,0.65-1.09,1.42-1.42,2.32c-0.34,0.9-0.51,1.89-0.51,2.97v0.65c0,1.14,0.17,2.16,0.51,3.05
			c0.34,0.9,0.82,1.66,1.42,2.3c0.61,0.64,1.32,1.13,2.14,1.47C232.04,30.87,232.93,31.04,233.91,31.04z"/>
		<path class="tagger" d="M252.56,24.36c0.08,2.01,0.71,3.62,1.87,4.84c1.17,1.22,2.79,1.83,4.88,1.83c0.95,0,1.78-0.11,2.48-0.33
			c0.71-0.22,1.31-0.51,1.81-0.9c0.5-0.38,0.91-0.82,1.22-1.32c0.31-0.5,0.56-1.04,0.75-1.61l3.01,0.81
			c-0.57,1.87-1.62,3.4-3.16,4.58c-1.53,1.18-3.6,1.77-6.21,1.77c-1.44,0-2.76-0.25-3.97-0.75c-1.21-0.5-2.25-1.21-3.11-2.14
			c-0.87-0.92-1.55-2.02-2.04-3.3c-0.49-1.28-0.73-2.69-0.73-4.23v-0.98c0-1.41,0.25-2.73,0.75-3.95c0.5-1.22,1.2-2.27,2.1-3.16
			c0.9-0.88,1.95-1.57,3.16-2.08c1.21-0.5,2.52-0.75,3.93-0.75c1.66,0,3.09,0.31,4.3,0.92c1.21,0.61,2.2,1.36,2.97,2.26
			c0.77,0.9,1.34,1.87,1.71,2.93c0.37,1.06,0.55,2.03,0.55,2.93v2.61H252.56z M259.31,15.73c-0.9,0-1.73,0.14-2.5,0.43
			c-0.77,0.28-1.45,0.69-2.04,1.2s-1.06,1.12-1.42,1.81c-0.37,0.69-0.6,1.45-0.71,2.26h13.03c-0.05-0.87-0.26-1.66-0.63-2.36
			c-0.37-0.71-0.84-1.3-1.42-1.79c-0.58-0.49-1.25-0.87-1.99-1.14C260.87,15.87,260.1,15.73,259.31,15.73z"/>
		<path class="tagger" d="M274.01,13.41h7.33v2.69h0.49c0.52-1.11,1.25-1.93,2.2-2.46s2.04-0.79,3.26-0.79c2.03,0,3.68,0.67,4.93,2
			c1.25,1.33,1.91,3.27,1.99,5.82l-3.34,0.49c0-1.87-0.45-3.22-1.34-4.05c-0.9-0.83-2-1.24-3.3-1.24c-0.84,0-1.57,0.16-2.18,0.49
			c-0.61,0.33-1.12,0.77-1.53,1.34c-0.41,0.57-0.71,1.24-0.9,2c-0.19,0.76-0.28,1.57-0.28,2.44v8.55h5.13v2.93h-12.95v-2.93h4.64
			V16.34h-4.15V13.41z"/>
	</g>
</g>
</svg>
